<?xml version="1.0" encoding="UTF-8" standalone="no" ?>
<!DOCTYPE svg PUBLIC "-//W3C//DTD SVG 1.1//EN" "http://www.w3.org/Graphics/SVG/1.1/DTD/svg11.dtd">
<svg xmlns="http://www.w3.org/2000/svg" xmlns:xlink="http://www.w3.org/1999/xlink" version="1.1" width="580" height="150" viewBox="0 0 580 150" xml:space="preserve">
<desc>Created with Fabric.js 3.6.6</desc>
<defs>
</defs>
<g transform="matrix(1 0 0 1 291.89 76.16)"  >
<g style=""   >
		<g transform="matrix(1 0 0 1 19.11 68.05)"  >
<path style="stroke: rgb(0,0,0); stroke-width: 1; stroke-dasharray: none; stroke-linecap: round; stroke-dashoffset: 0; stroke-linejoin: round; stroke-miterlimit: 10; fill: none; fill-rule: nonzero; opacity: 1;"  transform=" translate(-334, -214.2)" d="M 333.999 214.1999969482422 L 334.001 214.1999969482422" stroke-linecap="round" />
</g>
		<g transform="matrix(1 0 0 1 19.11 68.05)"  >
<path style="stroke: rgb(0,0,0); stroke-width: 1; stroke-dasharray: none; stroke-linecap: round; stroke-dashoffset: 0; stroke-linejoin: round; stroke-miterlimit: 10; fill: none; fill-rule: nonzero; opacity: 1;"  transform=" translate(-334, -214.2)" d="M 333.999 214.1999969482422 L 334.001 214.1999969482422" stroke-linecap="round" />
</g>
		<g transform="matrix(1 0 0 1 -115.89 3.05)"  >
<path style="stroke: rgb(0,0,0); stroke-width: 1; stroke-dasharray: none; stroke-linecap: round; stroke-dashoffset: 0; stroke-linejoin: round; stroke-miterlimit: 10; fill: none; fill-rule: nonzero; opacity: 1;"  transform=" translate(-199, -149.2)" d="M 198.999 149.1999969482422 L 199.001 149.1999969482422" stroke-linecap="round" />
</g>
		<g transform="matrix(0.64 0 0 0.64 -216.21 -4.23)"  >
<path style="stroke: none; stroke-width: 1; stroke-dasharray: none; stroke-linecap: butt; stroke-dashoffset: 0; stroke-linejoin: miter; stroke-miterlimit: 4; fill: rgb(241,179,27); fill-rule: evenodd; opacity: 1;"  transform=" translate(-128, -128)" d="m 92.3409091 195.909091 c 0 -6.181818 -5.0227273 -11.227273 -11.2045455 -11.227273 c -6.2045454 0 -11.2045454 5.045455 -11.2045454 11.227273 s 5 11.204545 11.2045454 11.204545 c 6.1818182 0 11.2045455 -5.022727 11.2045455 -11.204545 z m 135.6590909 -167.909091 v 200 h -200 v -17.340909 h 91.159091 c 13.727273 0 25.272727 -2.431818 34.636364 -7.295455 c 11.5 -5.954545 20.840909 -15.840909 28 -29.704545 c 5.954545 -11.522727 6.840909 -22.272727 2.75 -32.295455 c -2.386364 -6.068181 -7.409091 -12.727272 -15 -19.977272 c 10 -10.431819 17.181818 -19.886364 21.545454 -28.3409095 c 9.022727 -17.4545454 7.090909 -30.3636363 -5.818182 -38.75 c -9.181818 -5.9772727 -21.977272 -8.9545454 -38.340909 -8.9545454 h -46.545454 l -29.9318185 120.5681819 h 32.2499995 l 24.386364 -99.1136365 c 0.840909 0.0681819 1.704546 0 2.568182 0 h 4.659091 c 7.795454 0 15.772727 -0.6363636 22.068182 2.0681819 c 8.227272 4.7727272 9.522727 12.5454545 3.931818 23.3636363 c -1.75 3.4545455 -5.090909 7.5909091 -9.954546 12.3863633 c -4.886363 4.818182 -7.886363 8.363637 -9 10.522728 c -0.590909 1.136363 -0.931818 1.863636 -1.045454 2.363636 c -0.613637 3.454545 0.909091 6.818182 4.522727 10.113636 c 4.954546 4.613637 8.136364 8.863637 9.545455 12.795455 c 2.340909 6.477273 1.340909 14.045454 -3.090909 22.568182 c -6.204546 12.022727 -16.363637 18.022727 -30.386364 18.090909 l -92.909091 0.159091 v -153.227273 z" stroke-linecap="round" />
</g>
		<g transform="matrix(0.64 0 0 0.64 -112.5 31.64)"  >
<path style="stroke: none; stroke-width: 1; stroke-dasharray: none; stroke-linecap: butt; stroke-dashoffset: 0; stroke-linejoin: miter; stroke-miterlimit: 4; fill: rgb(255,255,255); fill-rule: evenodd; opacity: 1;"  transform=" translate(-30.04, -66.05)" d="m 35.82 91.7378 c -1.78 2.16 -4.66 3.22 -8.62 3.22 h -6.34 v -23.96 h 6.7 c 3.38 0 6.06 1.02 8 3.06 c 1.94 2.02 2.92 5.14 2.92 9.36 c 0 3.38 -0.9 6.18 -2.66 8.32 z m -14.96 -54.62 h 5.84 c 3.46 0 6.02 0.92 7.62 2.8 c 1.6 1.84 2.42 4.1 2.42 6.76 c 0 3.32 -0.82 5.88 -2.48 7.7 s -4.22 2.72 -7.7 2.72 h -5.7 z m 37.66 38.04 c -1.02 -2.86 -2.36 -5.04 -3.96 -6.58 c -1.62 -1.52 -3.32 -2.62 -5.08 -3.28 c -1.78 -0.66 -3.7 -1.14 -5.78 -1.48 v -0.26 c 4.2 -0.82 7.6 -3.06 10.1 -6.7 c 2.52 -3.64 3.8 -8.08 3.8 -13.28 c 0 -7.22 -2.26 -12.64 -6.76 -16.34 c -4.5 -3.66 -10.66 -5.5 -18.44 -5.5 h -32.4 v 88.62 h 30.78 c 5.88 0 10.78 -0.74 14.66 -2.24 c 3.88 -1.48 6.88 -3.46 9 -5.9 c 2.1 -2.44 3.58 -5.04 4.4 -7.82 c 0.84 -2.76 1.24 -5.62 1.24 -8.62 c 0 -4.22 -0.52 -7.76 -1.56 -10.62 z" stroke-linecap="round" />
</g>
		<g transform="matrix(0.64 0 0 0.64 -71.35 31.64)"  >
<path style="stroke: none; stroke-width: 1; stroke-dasharray: none; stroke-linecap: butt; stroke-dashoffset: 0; stroke-linejoin: miter; stroke-miterlimit: 4; fill: rgb(255,255,255); fill-rule: evenodd; opacity: 1;"  transform=" translate(-94.34, -66.04)" d="m 68.026 110.3618 v -88.64 h 51.26 v 16.9 h -30.42 v 17.76 h 28.54 v 16.88 h -28.54 v 20.22 h 31.78 v 16.88 z" stroke-linecap="round" />
</g>
		<g transform="matrix(0.64 0 0 0.64 -31.88 31.64)"  >
<path style="stroke: none; stroke-width: 1; stroke-dasharray: none; stroke-linecap: butt; stroke-dashoffset: 0; stroke-linejoin: miter; stroke-miterlimit: 4; fill: rgb(255,255,255); fill-rule: evenodd; opacity: 1;"  transform=" translate(-156.02, -66.04)" d="m 126.854 110.3618 v -88.64 h 20.86 v 33.16 h 16.64 v -33.16 h 20.84 v 88.64 h -20.84 v -37.86 h -16.64 v 37.86 z" stroke-linecap="round" />
</g>
		<g transform="matrix(0.64 0 0 0.64 12.89 31.64)"  >
<path style="stroke: none; stroke-width: 1; stroke-dasharray: none; stroke-linecap: butt; stroke-dashoffset: 0; stroke-linejoin: miter; stroke-miterlimit: 4; fill: rgb(255,255,255); fill-rule: evenodd; opacity: 1;"  transform=" translate(-225.97, -66.04)" d="m 230.39 55.6938 c -1.66 2.28 -4.4 3.4 -8.2 3.4 h -6.46 v -22.72 h 6.34 c 3.96 0 6.74 0.96 8.36 2.86 s 2.44 4.68 2.44 8.32 c 0 3.14 -0.84 5.86 -2.48 8.14 m 24.76 52.18 c -0.46 -0.56 -0.8 -1.52 -1.06 -2.8 c -0.26 -1.26 -0.46 -3.12 -0.64 -5.5 c -0.16 -2.42 -0.26 -6.02 -0.36 -10.8 c -0.08 -3.58 -0.26 -6.52 -0.56 -8.84 c -0.28 -2.3 -0.88 -4.36 -1.78 -6.2 c -0.92 -1.8 -2.34 -3.34 -4.22 -4.58 c -1.92 -1.26 -4.48 -2.06 -7.7 -2.48 v -0.24 c 4.96 -1.26 8.68 -3.6 11.16 -7.02 c 2.48 -3.44 3.72 -8.3 3.72 -14.58 c 0 -3.16 -0.42 -6.12 -1.3 -8.9 c -0.88 -2.74 -2.24 -5.2 -4.1 -7.3 c -1.86 -2.12 -4.32 -3.78 -7.38 -5.04 c -3.06 -1.24 -6.74 -1.86 -11.06 -1.86 h -34.98 v 88.62 h 20.84 v -36.62 h 7.94 c 3.38 0 5.7 1.22 6.9 3.66 c 1.2 2.46 1.8 7.44 1.8 14.96 c 0 5.04 0.16 8.96 0.5 11.68 c 0.32 2.72 0.88 4.84 1.74 6.32 h 22.44 v -1.12 c -0.82 -0.34 -1.44 -0.78 -1.9 -1.36" stroke-linecap="round" />
</g>
		<g transform="matrix(0.64 0 0 0.64 55.19 31.64)"  >
<path style="stroke: none; stroke-width: 1; stroke-dasharray: none; stroke-linecap: butt; stroke-dashoffset: 0; stroke-linejoin: miter; stroke-miterlimit: 4; fill: rgb(255,255,255); fill-rule: evenodd; opacity: 1;"  transform=" translate(-32.06, -53.96)" d="m 41.24 69.718 c -0.24 3.88 -0.7 7.06 -1.36 9.5 s -1.6 4.2 -2.84 5.26 c -1.24 1.08 -2.94 1.64 -5.1 1.64 c -2.06 0 -3.72 -0.56 -4.96 -1.64 c -1.24 -1.06 -2.18 -2.8 -2.8 -5.2 s -1.04 -5.56 -1.3 -9.5 c -0.24 -3.94 -0.38 -9.2 -0.38 -15.82 s 0.14 -11.9 0.38 -15.82 c 0.26 -3.94 0.68 -7.1 1.3 -9.5 s 1.56 -4.14 2.8 -5.22 c 1.24 -1.06 2.9 -1.62 4.96 -1.62 c 2.16 0 3.86 0.56 5.1 1.62 c 1.24 1.08 2.18 2.84 2.84 5.28 s 1.12 5.62 1.36 9.48 c 0.26 3.9 0.38 9.16 0.38 15.78 s -0.12 11.88 -0.38 15.76 m 17.26 -48.48 c -1.98 -4.16 -5.1 -7.44 -9.36 -9.8 s -9.96 -3.52 -17.06 -3.52 c -6.72 0 -12.14 1.02 -16.26 3.08 c -4.16 2.08 -7.3 5.1 -9.46 9.08 c -2.14 3.96 -3.58 8.64 -4.32 14.02 c -0.76 5.38 -1.14 12 -1.14 19.86 c 0 7.84 0.38 14.5 1.14 19.92 c 0.74 5.42 2.18 10.08 4.32 14.04 c 2.16 3.9 5.3 6.92 9.46 9 c 4.12 2.06 9.54 3.08 16.26 3.08 c 7.1 0 12.8 -1.18 17.06 -3.54 s 7.38 -5.6 9.36 -9.8 c 2 -4.18 3.28 -8.82 3.86 -13.9 s 0.86 -11.38 0.86 -18.8 c 0 -7.46 -0.28 -13.74 -0.86 -18.82 s -1.86 -9.7 -3.86 -13.9" stroke-linecap="round" />
</g>
		<g transform="matrix(0.64 0 0 0.64 98.72 31.64)"  >
<path style="stroke: none; stroke-width: 1; stroke-dasharray: none; stroke-linecap: butt; stroke-dashoffset: 0; stroke-linejoin: miter; stroke-miterlimit: 4; fill: rgb(255,255,255); fill-rule: evenodd; opacity: 1;"  transform=" translate(-40.08, -53.96)" d="m 49.266 69.718 c -0.24 3.88 -0.7 7.06 -1.36 9.5 s -1.62 4.2 -2.86 5.26 c -1.24 1.08 -2.94 1.64 -5.08 1.64 c -2.08 0 -3.72 -0.56 -4.96 -1.64 c -1.26 -1.06 -2.18 -2.8 -2.8 -5.2 s -1.04 -5.56 -1.28 -9.5 c -0.28 -3.94 -0.4 -9.2 -0.4 -15.82 s 0.12 -11.9 0.4 -15.82 c 0.24 -3.94 0.66 -7.1 1.28 -9.5 s 1.54 -4.14 2.8 -5.22 c 1.24 -1.06 2.88 -1.62 4.96 -1.62 c 2.14 0 3.84 0.56 5.08 1.62 c 1.24 1.08 2.2 2.84 2.86 5.28 s 1.12 5.62 1.36 9.48 c 0.26 3.9 0.4 9.16 0.4 15.78 s -0.14 11.88 -0.4 15.76 m 17.24 -48.48 c -1.96 -4.16 -5.1 -7.44 -9.34 -9.8 c -4.28 -2.36 -9.96 -3.52 -17.08 -3.52 c -6.7 0 -12.1 1.02 -16.26 3.08 c -4.14 2.08 -7.28 5.1 -9.44 9.08 c -2.14 3.96 -3.6 8.64 -4.34 14.02 c -0.76 5.38 -1.12 12 -1.12 19.86 c 0 7.84 0.36 14.5 1.12 19.92 c 0.74 5.42 2.2 10.08 4.34 14.04 c 2.16 3.9 5.3 6.92 9.44 9 c 4.16 2.06 9.56 3.08 16.26 3.08 c 7.12 0 12.8 -1.18 17.08 -3.54 c 4.24 -2.36 7.38 -5.6 9.34 -9.8 c 2 -4.18 3.28 -8.82 3.88 -13.9 c 0.56 -5.08 0.84 -11.38 0.84 -18.8 c 0 -7.46 -0.28 -13.74 -0.84 -18.82 c -0.6 -5.08 -1.88 -9.7 -3.88 -13.9" stroke-linecap="round" />
</g>
		<g transform="matrix(0.64 0 0 0.64 142.9 31.64)"  >
<path style="stroke: none; stroke-width: 1; stroke-dasharray: none; stroke-linecap: butt; stroke-dashoffset: 0; stroke-linejoin: miter; stroke-miterlimit: 4; fill: rgb(255,255,255); fill-rule: evenodd; opacity: 1;"  transform=" translate(-429.1, -66.05)" d="m 437.734 80.5078 c -0.46 4 -1.18 7.06 -2.18 9.12 s -2.3 3.48 -3.92 4.22 c -1.62 0.76 -3.68 1.12 -6.26 1.12 h -5.58 v -57.84 h 5.82 c 2.82 0 5.06 0.42 6.7 1.24 c 1.66 0.82 2.92 2.24 3.78 4.28 c 0.88 2.02 1.48 4.74 1.8 8.12 c 0.34 3.4 0.52 8 0.52 13.8 c 0 6.6 -0.24 11.92 -0.68 15.94 m 19.84 -36.8 c -1.1 -5.28 -2.86 -9.56 -5.26 -12.78 c -4.48 -6.14 -11.96 -9.2 -22.48 -9.2 h -30.88 v 88.64 h 28.78 c 6.78 0 12.28 -0.94 16.44 -2.78 c 4.18 -1.9 7.34 -4.72 9.5 -8.52 c 2.16 -3.82 3.62 -8.56 4.42 -14.28 c 0.76 -5.7 1.16 -12.92 1.16 -21.6 c 0 -7.7 -0.56 -14.2 -1.68 -19.48" stroke-linecap="round" />
</g>
		<g transform="matrix(0.64 0 0 0.64 197.95 40.6)"  >
<path style="stroke: none; stroke-width: 1; stroke-dasharray: none; stroke-linecap: butt; stroke-dashoffset: 0; stroke-linejoin: miter; stroke-miterlimit: 4; fill: rgb(255,255,255); fill-rule: evenodd; opacity: 1;"  transform=" translate(-515.12, -80.04)" d="m 507.694 98.1158 v -25.26 h -5.86 v -9.76 h 5.86 v -13.92 h 14.16 v 13.92 h 6.56 v 9.76 h -6.56 v 23.86 c 0 1.64 0.32 2.76 0.98 3.42 c 0.68 0.64 1.86 0.96 3.54 0.96 c 0.52 0 1.2 -0.06 2.04 -0.18 v 9.44 c -2.7 0.34 -5.4 0.54 -8.16 0.54 c -2.62 0 -4.68 -0.16 -6.24 -0.48 c -1.54 -0.34 -2.76 -0.94 -3.7 -1.82 c -0.94 -0.86 -1.62 -2.12 -2 -3.78 c -0.42 -1.66 -0.62 -3.9 -0.62 -6.7" stroke-linecap="round" />
</g>
		<g transform="matrix(0.64 0 0 0.64 216.96 44.49)"  >
<path style="stroke: none; stroke-width: 1; stroke-dasharray: none; stroke-linecap: butt; stroke-dashoffset: 0; stroke-linejoin: miter; stroke-miterlimit: 4; fill: rgb(255,255,255); fill-rule: evenodd; opacity: 1;"  transform=" translate(-544.82, -86.12)" d="m 531.094 110.3618 v -47.28 h 13.64 v 6.64 h 0.18 c 1.06 -2.34 2.5 -4.22 4.38 -5.68 c 1.84 -1.46 4.18 -2.16 6.98 -2.16 c 0.92 0 1.68 0.04 2.28 0.16 v 13.28 c -1.22 -0.22 -2.54 -0.36 -3.94 -0.36 c -2.96 0 -5.28 0.68 -6.9 2.06 c -1.62 1.36 -2.46 3.54 -2.46 6.5 v 26.84 z" stroke-linecap="round" />
</g>
		<g transform="matrix(0.64 0 0 0.64 176.75 44.88)"  >
<path style="stroke: none; stroke-width: 1; stroke-dasharray: none; stroke-linecap: butt; stroke-dashoffset: 0; stroke-linejoin: miter; stroke-miterlimit: 4; fill: rgb(255,255,255); fill-rule: evenodd; opacity: 1;"  transform=" translate(-482, -86.73)" d="m 486.376 89.7278 c -0.06 1.98 -0.1 3.84 -0.1 5.6 c 0 2.22 -0.54 3.84 -1.6 4.88 c -1.1 1.08 -2.44 1.58 -4.08 1.58 c -1.28 0 -2.28 -0.52 -3 -1.62 c -0.74 -1.06 -1.1 -2.54 -1.1 -4.4 c 0 -2.4 0.72 -4.14 2.16 -5.24 c 0.42 -0.3 1.24 -0.7 2.46 -1.22 c 1.94 -0.7 3.68 -1.48 5.26 -2.28 z m 13.1 10.4 v -24.28 c 0 -4.96 -1.32 -8.52 -3.98 -10.7 c -2.64 -2.2 -6.92 -3.28 -12.8 -3.28 c -2.98 0 -5.48 0.24 -7.6 0.68 c -2.12 0.48 -3.98 1.26 -5.6 2.38 c -1.68 1.14 -3 2.78 -3.9 4.84 c -0.88 2.06 -1.36 4.68 -1.44 7.82 h 12.6 c 0.04 -2.2 0.46 -3.84 1.24 -4.88 c 0.74 -1.06 2.08 -1.58 3.92 -1.58 c 1.52 0 2.62 0.4 3.36 1.22 c 0.72 0.8 1.1 1.98 1.1 3.5 c 0 1.74 -0.32 2.94 -0.94 3.56 c -0.6 0.66 -1.98 1.26 -4.14 1.86 c -0.4 0.12 -1.46 0.38 -3.14 0.78 c -2.12 0.48 -3.9 0.94 -5.48 1.4 c -1.52 0.46 -2.88 1.02 -4.04 1.66 c -1.78 0.98 -3.16 2.56 -4.2 4.72 c -1.06 2.14 -1.58 4.6 -1.58 7.34 c 0 4.94 1.06 8.6 3.24 10.9 c 2.16 2.34 5.28 3.52 9.36 3.52 c 2.38 0 4.62 -0.62 6.64 -1.8 c 2.02 -1.2 3.5 -2.82 4.44 -4.86 h 0.18 c 0.12 2.28 0.38 4.1 0.78 5.44 h 13.64 c -0.68 -0.96 -1.16 -2.24 -1.36 -3.9 c -0.22 -1.66 -0.3 -3.76 -0.3 -6.34 z" stroke-linecap="round" />
</g>
		<g transform="matrix(0.64 0 0 0.64 237.99 44.88)"  >
<path style="stroke: none; stroke-width: 1; stroke-dasharray: none; stroke-linecap: butt; stroke-dashoffset: 0; stroke-linejoin: miter; stroke-miterlimit: 4; fill: rgb(255,255,255); fill-rule: evenodd; opacity: 1;"  transform=" translate(-577.68, -86.73)" d="m 582.04 89.7278 c -0.06 1.98 -0.08 3.84 -0.08 5.6 c 0 2.22 -0.52 3.84 -1.62 4.88 c -1.08 1.08 -2.44 1.58 -4.06 1.58 c -1.28 0 -2.28 -0.52 -3.02 -1.62 c -0.72 -1.06 -1.08 -2.54 -1.08 -4.4 c 0 -2.4 0.7 -4.14 2.18 -5.24 c 0.42 -0.3 1.22 -0.7 2.44 -1.22 c 1.92 -0.7 3.66 -1.48 5.24 -2.28 z m 13.42 16.74 c -0.2 -1.66 -0.3 -3.76 -0.3 -6.34 v -24.28 c 0 -4.96 -1.34 -8.52 -3.98 -10.7 c -2.66 -2.2 -6.92 -3.28 -12.8 -3.28 c -2.98 0 -5.52 0.24 -7.6 0.68 c -2.1 0.48 -3.96 1.26 -5.6 2.38 c -1.68 1.14 -2.98 2.78 -3.88 4.84 c -0.92 2.06 -1.4 4.68 -1.44 7.82 h 12.58 c 0.06 -2.2 0.44 -3.84 1.22 -4.88 c 0.74 -1.06 2.06 -1.58 3.94 -1.58 c 1.5 0 2.62 0.4 3.36 1.22 c 0.72 0.8 1.08 1.98 1.08 3.5 c 0 1.74 -0.3 2.94 -0.9 3.56 c -0.62 0.66 -2.02 1.26 -4.16 1.86 c -0.4 0.12 -1.46 0.38 -3.14 0.78 c -2.12 0.48 -3.92 0.94 -5.48 1.4 c -1.54 0.46 -2.9 1.02 -4.06 1.66 c -1.74 0.98 -3.12 2.56 -4.2 4.72 c -1.02 2.14 -1.56 4.6 -1.56 7.34 c 0 4.94 1.08 8.6 3.22 10.9 c 2.16 2.34 5.28 3.52 9.36 3.52 c 2.38 0 4.6 -0.62 6.64 -1.8 c 2.04 -1.2 3.52 -2.82 4.48 -4.86 h 0.16 c 0.1 2.28 0.38 4.1 0.78 5.44 h 13.64 c -0.7 -0.96 -1.14 -2.24 -1.36 -3.9 z" stroke-linecap="round" />
</g>
		<g transform="matrix(0.64 0 0 0.64 266.73 40.04)"  >
<path style="stroke: none; stroke-width: 1; stroke-dasharray: none; stroke-linecap: butt; stroke-dashoffset: 0; stroke-linejoin: miter; stroke-miterlimit: 4; fill: rgb(255,255,255); fill-rule: evenodd; opacity: 1;"  transform=" translate(-622.59, -79.17)" d="m 601.532 47.9698 h 14.16 v 32.06 h 0.16 l 10.58 -16.94 h 15.56 l -13.54 19.04 l 15.2 28.24 h -15.46 l -8.84 -17.82 l -3.66 4.96 v 12.86 h -14.16 z" stroke-linecap="round" />
</g>
</g>
</g>
</svg>