<svg height="256" viewBox="0 0 920 256" width="920" xmlns="http://www.w3.org/2000/svg" xmlns:xlink="http://www.w3.org/1999/xlink"><mask id="a" fill="#fff"><path d="m.9 7.92h62.32v92.078h-62.32z" fill="#fff" fill-rule="evenodd"/></mask><mask id="b" fill="#fff"><path d="m8.926 7.92h62.3v92.078h-62.3z" fill="#fff" fill-rule="evenodd"/></mask><g fill="none" fill-rule="evenodd"><path d="m92.3409091 195.909091c0-6.181818-5.0227273-11.227273-11.2045455-11.227273-6.2045454 0-11.2045454 5.045455-11.2045454 11.227273s5 11.204545 11.2045454 11.204545c6.1818182 0 11.2045455-5.022727 11.2045455-11.204545zm135.6590909-167.909091v200h-200v-17.340909h91.159091c13.727273 0 25.272727-2.431818 34.636364-7.295455 11.5-5.954545 20.840909-15.840909 28-29.704545 5.954545-11.522727 6.840909-22.272727 2.75-32.295455-2.386364-6.068181-7.409091-12.727272-15-19.977272 10-10.431819 17.181818-19.886364 21.545454-28.3409095 9.022727-17.4545454 7.090909-30.3636363-5.818182-38.75-9.181818-5.9772727-21.977272-8.9545454-38.340909-8.9545454h-46.545454l-29.9318185 120.5681819h32.2499995l24.386364-99.1136365c.840909.0681819 1.704546 0 2.568182 0h4.659091c7.795454 0 15.772727-.6363636 22.068182 2.0681819 8.227272 4.7727272 9.522727 12.5454545 3.931818 23.3636363-1.75 3.4545455-5.090909 7.5909091-9.954546 12.3863633-4.886363 4.818182-7.886363 8.363637-9 10.522728-.590909 1.136363-.931818 1.863636-1.045454 2.363636-.613637 3.454545.909091 6.818182 4.522727 10.113636 4.954546 4.613637 8.136364 8.863637 9.545455 12.795455 2.340909 6.477273 1.340909 14.045454-3.090909 22.568182-6.204546 12.022727-16.363637 18.022727-30.386364 18.090909l-92.909091.159091v-153.227273z" fill="#f1b31b"/><g transform="translate(260 118)"><g fill="#231f20"><path d="m35.82 91.7378c-1.78 2.16-4.66 3.22-8.62 3.22h-6.34v-23.96h6.7c3.38 0 6.06 1.02 8 3.06 1.94 2.02 2.92 5.14 2.92 9.36 0 3.38-.9 6.18-2.66 8.32zm-14.96-54.62h5.84c3.46 0 6.02.92 7.62 2.8 1.6 1.84 2.42 4.1 2.42 6.76 0 3.32-.82 5.88-2.48 7.7s-4.22 2.72-7.7 2.72h-5.7zm37.66 38.04c-1.02-2.86-2.36-5.04-3.96-6.58-1.62-1.52-3.32-2.62-5.08-3.28-1.78-.66-3.7-1.14-5.78-1.48v-.26c4.2-.82 7.6-3.06 10.1-6.7 2.52-3.64 3.8-8.08 3.8-13.28 0-7.22-2.26-12.64-6.76-16.34-4.5-3.66-10.66-5.5-18.44-5.5h-32.4v88.62h30.78c5.88 0 10.78-.74 14.66-2.24 3.88-1.48 6.88-3.46 9-5.9 2.1-2.44 3.58-5.04 4.4-7.82.84-2.76 1.24-5.62 1.24-8.62 0-4.22-.52-7.76-1.56-10.62z"/><path d="m68.026 110.3618v-88.64h51.26v16.9h-30.42v17.76h28.54v16.88h-28.54v20.22h31.78v16.88z"/><path d="m126.854 110.3618v-88.64h20.86v33.16h16.64v-33.16h20.84v88.64h-20.84v-37.86h-16.64v37.86z"/><path d="m230.39 55.6938c-1.66 2.28-4.4 3.4-8.2 3.4h-6.46v-22.72h6.34c3.96 0 6.74.96 8.36 2.86s2.44 4.68 2.44 8.32c0 3.14-.84 5.86-2.48 8.14m24.76 52.18c-.46-.56-.8-1.52-1.06-2.8-.26-1.26-.46-3.12-.64-5.5-.16-2.42-.26-6.02-.36-10.8-.08-3.58-.26-6.52-.56-8.84-.28-2.3-.88-4.36-1.78-6.2-.92-1.8-2.34-3.34-4.22-4.58-1.92-1.26-4.48-2.06-7.7-2.48v-.24c4.96-1.26 8.68-3.6 11.16-7.02 2.48-3.44 3.72-8.3 3.72-14.58 0-3.16-.42-6.12-1.3-8.9-.88-2.74-2.24-5.2-4.1-7.3-1.86-2.12-4.32-3.78-7.38-5.04-3.06-1.24-6.74-1.86-11.06-1.86h-34.98v88.62h20.84v-36.62h7.94c3.38 0 5.7 1.22 6.9 3.66 1.2 2.46 1.8 7.44 1.8 14.96 0 5.04.16 8.96.5 11.68.32 2.72.88 4.84 1.74 6.32h22.44v-1.12c-.82-.34-1.44-.78-1.9-1.36"/><path d="m41.24 69.718c-.24 3.88-.7 7.06-1.36 9.5s-1.6 4.2-2.84 5.26c-1.24 1.08-2.94 1.64-5.1 1.64-2.06 0-3.72-.56-4.96-1.64-1.24-1.06-2.18-2.8-2.8-5.2s-1.04-5.56-1.3-9.5c-.24-3.94-.38-9.2-.38-15.82s.14-11.9.38-15.82c.26-3.94.68-7.1 1.3-9.5s1.56-4.14 2.8-5.22c1.24-1.06 2.9-1.62 4.96-1.62 2.16 0 3.86.56 5.1 1.62 1.24 1.08 2.18 2.84 2.84 5.28s1.12 5.62 1.36 9.48c.26 3.9.38 9.16.38 15.78s-.12 11.88-.38 15.76m17.26-48.48c-1.98-4.16-5.1-7.44-9.36-9.8s-9.96-3.52-17.06-3.52c-6.72 0-12.14 1.02-16.26 3.08-4.16 2.08-7.3 5.1-9.46 9.08-2.14 3.96-3.58 8.64-4.32 14.02-.76 5.38-1.14 12-1.14 19.86 0 7.84.38 14.5 1.14 19.92.74 5.42 2.18 10.08 4.32 14.04 2.16 3.9 5.3 6.92 9.46 9 4.12 2.06 9.54 3.08 16.26 3.08 7.1 0 12.8-1.18 17.06-3.54s7.38-5.6 9.36-9.8c2-4.18 3.28-8.82 3.86-13.9s.86-11.38.86-18.8c0-7.46-.28-13.74-.86-18.82s-1.86-9.7-3.86-13.9" mask="url(#a)" transform="translate(260 12.0898)"/><path d="m49.266 69.718c-.24 3.88-.7 7.06-1.36 9.5s-1.62 4.2-2.86 5.26c-1.24 1.08-2.94 1.64-5.08 1.64-2.08 0-3.72-.56-4.96-1.64-1.26-1.06-2.18-2.8-2.8-5.2s-1.04-5.56-1.28-9.5c-.28-3.94-.4-9.2-.4-15.82s.12-11.9.4-15.82c.24-3.94.66-7.1 1.28-9.5s1.54-4.14 2.8-5.22c1.24-1.06 2.88-1.62 4.96-1.62 2.14 0 3.84.56 5.08 1.62 1.24 1.08 2.2 2.84 2.86 5.28s1.12 5.62 1.36 9.48c.26 3.9.4 9.16.4 15.78s-.14 11.88-.4 15.76m17.24-48.48c-1.96-4.16-5.1-7.44-9.34-9.8-4.28-2.36-9.96-3.52-17.08-3.52-6.7 0-12.1 1.02-16.26 3.08-4.14 2.08-7.28 5.1-9.44 9.08-2.14 3.96-3.6 8.64-4.34 14.02-.76 5.38-1.12 12-1.12 19.86 0 7.84.36 14.5 1.12 19.92.74 5.42 2.2 10.08 4.34 14.04 2.16 3.9 5.3 6.92 9.44 9 4.16 2.06 9.56 3.08 16.26 3.08 7.12 0 12.8-1.18 17.08-3.54 4.24-2.36 7.38-5.6 9.34-9.8 2-4.18 3.28-8.82 3.88-13.9.56-5.08.84-11.38.84-18.8 0-7.46-.28-13.74-.84-18.82-.6-5.08-1.88-9.7-3.88-13.9" mask="url(#b)" transform="translate(320 12.0898)"/><path d="m437.734 80.5078c-.46 4-1.18 7.06-2.18 9.12s-2.3 3.48-3.92 4.22c-1.62.76-3.68 1.12-6.26 1.12h-5.58v-57.84h5.82c2.82 0 5.06.42 6.7 1.24 1.66.82 2.92 2.24 3.78 4.28.88 2.02 1.48 4.74 1.8 8.12.34 3.4.52 8 .52 13.8 0 6.6-.24 11.92-.68 15.94m19.84-36.8c-1.1-5.28-2.86-9.56-5.26-12.78-4.48-6.14-11.96-9.2-22.48-9.2h-30.88v88.64h28.78c6.78 0 12.28-.94 16.44-2.78 4.18-1.9 7.34-4.72 9.5-8.52 2.16-3.82 3.62-8.56 4.42-14.28.76-5.7 1.16-12.92 1.16-21.6 0-7.7-.56-14.2-1.68-19.48"/></g><path d="m507.694 98.1158v-25.26h-5.86v-9.76h5.86v-13.92h14.16v13.92h6.56v9.76h-6.56v23.86c0 1.64.32 2.76.98 3.42.68.64 1.86.96 3.54.96.52 0 1.2-.06 2.04-.18v9.44c-2.7.34-5.4.54-8.16.54-2.62 0-4.68-.16-6.24-.48-1.54-.34-2.76-.94-3.7-1.82-.94-.86-1.62-2.12-2-3.78-.42-1.66-.62-3.9-.62-6.7" fill="#58585b"/><path d="m531.094 110.3618v-47.28h13.64v6.64h.18c1.06-2.34 2.5-4.22 4.38-5.68 1.84-1.46 4.18-2.16 6.98-2.16.92 0 1.68.04 2.28.16v13.28c-1.22-.22-2.54-.36-3.94-.36-2.96 0-5.28.68-6.9 2.06-1.62 1.36-2.46 3.54-2.46 6.5v26.84z" fill="#58585b"/><path d="m486.376 89.7278c-.06 1.98-.1 3.84-.1 5.6 0 2.22-.54 3.84-1.6 4.88-1.1 1.08-2.44 1.58-4.08 1.58-1.28 0-2.28-.52-3-1.62-.74-1.06-1.1-2.54-1.1-4.4 0-2.4.72-4.14 2.16-5.24.42-.3 1.24-.7 2.46-1.22 1.94-.7 3.68-1.48 5.26-2.28zm13.1 10.4v-24.28c0-4.96-1.32-8.52-3.98-10.7-2.64-2.2-6.92-3.28-12.8-3.28-2.98 0-5.48.24-7.6.68-2.12.48-3.98 1.26-5.6 2.38-1.68 1.14-3 2.78-3.9 4.84-.88 2.06-1.36 4.68-1.44 7.82h12.6c.04-2.2.46-3.84 1.24-4.88.74-1.06 2.08-1.58 3.92-1.58 1.52 0 2.62.4 3.36 1.22.72.8 1.1 1.98 1.1 3.5 0 1.74-.32 2.94-.94 3.56-.6.66-1.98 1.26-4.14 1.86-.4.12-1.46.38-3.14.78-2.12.48-3.9.94-5.48 1.4-1.52.46-2.88 1.02-4.04 1.66-1.78.98-3.16 2.56-4.2 4.72-1.06 2.14-1.58 4.6-1.58 7.34 0 4.94 1.06 8.6 3.24 10.9 2.16 2.34 5.28 3.52 9.36 3.52 2.38 0 4.62-.62 6.64-1.8 2.02-1.2 3.5-2.82 4.44-4.86h.18c.12 2.28.38 4.1.78 5.44h13.64c-.68-.96-1.16-2.24-1.36-3.9-.22-1.66-.3-3.76-.3-6.34z" fill="#58585b"/><path d="m582.04 89.7278c-.06 1.98-.08 3.84-.08 5.6 0 2.22-.52 3.84-1.62 4.88-1.08 1.08-2.44 1.58-4.06 1.58-1.28 0-2.28-.52-3.02-1.62-.72-1.06-1.08-2.54-1.08-4.4 0-2.4.7-4.14 2.18-5.24.42-.3 1.22-.7 2.44-1.22 1.92-.7 3.66-1.48 5.24-2.28zm13.42 16.74c-.2-1.66-.3-3.76-.3-6.34v-24.28c0-4.96-1.34-8.52-3.98-10.7-2.66-2.2-6.92-3.28-12.8-3.28-2.98 0-5.52.24-7.6.68-2.1.48-3.96 1.26-5.6 2.38-1.68 1.14-2.98 2.78-3.88 4.84-.92 2.06-1.4 4.68-1.44 7.82h12.58c.06-2.2.44-3.84 1.22-4.88.74-1.06 2.06-1.58 3.94-1.58 1.5 0 2.62.4 3.36 1.22.72.8 1.08 1.98 1.08 3.5 0 1.74-.3 2.94-.9 3.56-.62.66-2.02 1.26-4.16 1.86-.4.12-1.46.38-3.14.78-2.12.48-3.92.94-5.48 1.4-1.54.46-2.9 1.02-4.06 1.66-1.74.98-3.12 2.56-4.2 4.72-1.02 2.14-1.56 4.6-1.56 7.34 0 4.94 1.08 8.6 3.22 10.9 2.16 2.34 5.28 3.52 9.36 3.52 2.38 0 4.6-.62 6.64-1.8 2.04-1.2 3.52-2.82 4.48-4.86h.16c.1 2.28.38 4.1.78 5.44h13.64c-.7-.96-1.14-2.24-1.36-3.9z" fill="#58585b"/><path d="m601.532 47.9698h14.16v32.06h.16l10.58-16.94h15.56l-13.54 19.04 15.2 28.24h-15.46l-8.84-17.82-3.66 4.96v12.86h-14.16z" fill="#58585b"/></g></g></svg>